<svg xmlns="http://www.w3.org/2000/svg" viewBox="0 0 1120 1500" width="1120" height="1500" role="img" aria-label="phuket 03"><defs><linearGradient id="sky" x1="0" y1="0" x2="0" y2="1"><stop offset="0%" stop-color="#0f3b4e"/><stop offset="100%" stop-color="#f6c982"/></linearGradient><radialGradient id="glow" cx="50%" cy="50%" r="50%"><stop offset="0%" stop-color="#fff2cd" stop-opacity="0.8"/><stop offset="100%" stop-color="#fff2cd" stop-opacity="0"/></radialGradient><radialGradient id="vig" cx="50%" cy="45%" r="78%"><stop offset="52%" stop-color="#000" stop-opacity="0"/><stop offset="100%" stop-color="#000" stop-opacity="0.5"/></radialGradient></defs><rect width="1120" height="1500" fill="url(#sky)"/><circle cx="741.8" cy="380.7" r="535.5" fill="url(#glow)"/><circle cx="741.8" cy="380.7" r="76.5" fill="#fff2cd" opacity="0.92"/><rect x="365.7" y="252.4" width="375.7" height="10.5" rx="6" fill="#fff2cd" opacity="0.16"/><rect x="466.5" y="259.9" width="259.5" height="10.5" rx="6" fill="#fff2cd" opacity="0.11"/><rect x="700.1" y="253.5" width="263.0" height="10.5" rx="6" fill="#fff2cd" opacity="0.13"/><rect x="45.1" y="287.1" width="406.3" height="10.5" rx="6" fill="#fff2cd" opacity="0.15"/><rect x="664.8" y="571.2" width="432.2" height="10.5" rx="6" fill="#fff2cd" opacity="0.06"/><rect x="409.2" y="424.7" width="367.2" height="10.5" rx="6" fill="#fff2cd" opacity="0.15"/><path d="M0,871.0 Q70.0,758.7 140.0,818.7 Q210.0,758.7 280.0,900.3 Q350.0,840.3 420.0,901.4 Q490.0,841.4 560.0,923.6 Q630.0,754.4 700.0,814.4 Q770.0,749.2 840.0,809.2 Q910.0,749.2 980.0,935.3 Q1050.0,813.1 1120.0,873.1 L1120,1500 L0,1500 Z" fill="#2a7a76"/><polygon points="173.1,756.3 133.1,979.5 213.2,979.5" fill="#175a58"/><polygon points="173.1,839.6 115.4,979.5 230.8,979.5" fill="#175a58"/><polygon points="394.1,819.3 362.6,979.5 425.6,979.5" fill="#175a58"/><polygon points="394.1,878.7 348.7,979.5 439.5,979.5" fill="#175a58"/><polygon points="871.8,704.1 826.3,979.5 917.2,979.5" fill="#175a58"/><polygon points="871.8,807.2 806.3,979.5 937.2,979.5" fill="#175a58"/><polygon points="108.3,851.4 88.0,979.5 128.5,979.5" fill="#175a58"/><polygon points="108.3,898.6 79.1,979.5 137.4,979.5" fill="#175a58"/><polygon points="1096.9,714.6 1042.2,979.5 1151.6,979.5" fill="#175a58"/><polygon points="1096.9,813.7 1018.1,979.5 1175.7,979.5" fill="#175a58"/><polygon points="276.3,687.5 223.3,979.5 329.3,979.5" fill="#175a58"/><polygon points="276.3,797.0 200.0,979.5 352.6,979.5" fill="#175a58"/><polygon points="1009.1,685.7 954.6,979.5 1063.6,979.5" fill="#175a58"/><polygon points="1009.1,795.9 930.6,979.5 1087.6,979.5" fill="#175a58"/><polygon points="534.5,763.7 491.9,979.5 577.1,979.5" fill="#175a58"/><polygon points="534.5,844.2 473.2,979.5 595.8,979.5" fill="#175a58"/><polygon points="558.2,702.0 508.1,979.5 608.2,979.5" fill="#175a58"/><polygon points="558.2,805.9 486.1,979.5 630.3,979.5" fill="#175a58"/><polygon points="737.0,744.1 691.1,979.5 783.0,979.5" fill="#175a58"/><polygon points="737.0,832.1 670.8,979.5 803.2,979.5" fill="#175a58"/><polygon points="361.3,852.8 342.6,979.5 380.0,979.5" fill="#175a58"/><polygon points="361.3,899.4 334.3,979.5 388.2,979.5" fill="#175a58"/><polygon points="123.2,841.2 98.6,979.5 147.7,979.5" fill="#175a58"/><polygon points="123.2,892.2 87.8,979.5 158.5,979.5" fill="#175a58"/><polygon points="1074.5,813.5 1045.1,979.5 1103.8,979.5" fill="#175a58"/><polygon points="1074.5,875.0 1032.2,979.5 1116.7,979.5" fill="#175a58"/><polygon points="261.7,741.9 222.3,979.5 301.1,979.5" fill="#175a58"/><polygon points="261.7,830.7 205.0,979.5 318.4,979.5" fill="#175a58"/><polygon points="548.3,779.3 509.7,979.5 586.8,979.5" fill="#175a58"/><polygon points="548.3,853.9 492.8,979.5 603.7,979.5" fill="#175a58"/><polygon points="353.2,702.2 304.2,979.5 402.3,979.5" fill="#175a58"/><polygon points="353.2,806.0 282.6,979.5 423.9,979.5" fill="#175a58"/><polygon points="430.6,730.2 385.9,979.5 475.3,979.5" fill="#175a58"/><polygon points="430.6,823.4 366.2,979.5 494.9,979.5" fill="#175a58"/><polygon points="849.0,759.4 813.3,979.5 884.7,979.5" fill="#175a58"/><polygon points="849.0,841.5 797.6,979.5 900.4,979.5" fill="#175a58"/><polygon points="198.6,722.2 158.1,979.5 239.1,979.5" fill="#175a58"/><polygon points="198.6,818.5 140.3,979.5 257.0,979.5" fill="#175a58"/><polygon points="836.9,846.2 814.5,979.5 859.2,979.5" fill="#175a58"/><polygon points="836.9,895.4 804.7,979.5 869.0,979.5" fill="#175a58"/><rect x="0" y="975.5" width="1120" height="1500" fill="#175a58"/><polygon points="536.6,1003.5 499.9,1240.8 573.3,1240.8" fill="#062626"/><polygon points="536.6,1092.1 483.8,1240.8 589.5,1240.8" fill="#062626"/><polygon points="164.9,957.3 115.3,1240.8 214.6,1240.8" fill="#062626"/><polygon points="164.9,1063.5 93.5,1240.8 236.4,1240.8" fill="#062626"/><polygon points="1002.7,1064.9 975.8,1240.8 1029.6,1240.8" fill="#062626"/><polygon points="1002.7,1130.2 964.0,1240.8 1041.4,1240.8" fill="#062626"/><polygon points="214.3,1042.0 173.6,1240.8 255.0,1240.8" fill="#062626"/><polygon points="214.3,1116.0 155.7,1240.8 272.9,1240.8" fill="#062626"/><polygon points="183.6,994.4 140.7,1240.8 226.5,1240.8" fill="#062626"/><polygon points="183.6,1086.5 121.8,1240.8 245.4,1240.8" fill="#062626"/><polygon points="24.0,1026.0 -17.1,1240.8 65.1,1240.8" fill="#062626"/><polygon points="24.0,1106.1 -35.2,1240.8 83.2,1240.8" fill="#062626"/><polygon points="528.2,1045.3 488.8,1240.8 567.6,1240.8" fill="#062626"/><polygon points="528.2,1118.1 471.4,1240.8 585.0,1240.8" fill="#062626"/><polygon points="225.2,986.3 182.7,1240.8 267.7,1240.8" fill="#062626"/><polygon points="225.2,1081.5 164.0,1240.8 286.4,1240.8" fill="#062626"/><polygon points="764.1,911.4 699.4,1240.8 828.7,1240.8" fill="#062626"/><polygon points="764.1,1035.1 671.0,1240.8 857.2,1240.8" fill="#062626"/><polygon points="732.9,1031.1 691.6,1240.8 774.2,1240.8" fill="#062626"/><polygon points="732.9,1109.3 673.4,1240.8 792.4,1240.8" fill="#062626"/><polygon points="966.5,946.9 915.9,1240.8 1017.1,1240.8" fill="#062626"/><polygon points="966.5,1057.1 893.7,1240.8 1039.4,1240.8" fill="#062626"/><polygon points="972.0,943.7 923.8,1240.8 1020.1,1240.8" fill="#062626"/><polygon points="972.0,1055.1 902.6,1240.8 1041.3,1240.8" fill="#062626"/><polygon points="176.7,914.4 118.7,1240.8 234.7,1240.8" fill="#062626"/><polygon points="176.7,1036.9 93.2,1240.8 260.3,1240.8" fill="#062626"/><polygon points="707.6,1037.1 674.1,1240.8 741.1,1240.8" fill="#062626"/><polygon points="707.6,1113.0 659.3,1240.8 755.8,1240.8" fill="#062626"/><polygon points="4.9,1010.9 -31.2,1240.8 41.0,1240.8" fill="#062626"/><polygon points="4.9,1096.8 -47.1,1240.8 56.9,1240.8" fill="#062626"/><polygon points="871.4,866.1 809.4,1240.8 933.4,1240.8" fill="#062626"/><polygon points="871.4,1007.0 782.1,1240.8 960.6,1240.8" fill="#062626"/><rect x="0" y="1236.8" width="1120" height="1500" fill="#062626"/><rect width="1120" height="1500" fill="url(#vig)"/></svg>