<svg xmlns="http://www.w3.org/2000/svg" viewBox="0 0 1600 1067" width="1600" height="1067" role="img" aria-label="lisbon 04"><defs><linearGradient id="sky" x1="0" y1="0" x2="0" y2="1"><stop offset="0%" stop-color="#152a52"/><stop offset="100%" stop-color="#eda971"/></linearGradient><radialGradient id="glow" cx="50%" cy="50%" r="50%"><stop offset="0%" stop-color="#ffe6c1" stop-opacity="0.8"/><stop offset="100%" stop-color="#ffe6c1" stop-opacity="0"/></radialGradient><radialGradient id="vig" cx="50%" cy="45%" r="78%"><stop offset="52%" stop-color="#000" stop-opacity="0"/><stop offset="100%" stop-color="#000" stop-opacity="0.5"/></radialGradient></defs><rect width="1600" height="1067" fill="url(#sky)"/><circle cx="1118.5" cy="302.5" r="476.7" fill="url(#glow)"/><circle cx="1118.5" cy="302.5" r="68.1" fill="#ffe6c1" opacity="0.92"/><rect x="614.1" y="170.4" width="295.5" height="7.5" rx="6" fill="#ffe6c1" opacity="0.14"/><rect x="832.1" y="323.0" width="579.4" height="7.5" rx="6" fill="#ffe6c1" opacity="0.11"/><rect x="195.9" y="252.2" width="281.1" height="7.5" rx="6" fill="#ffe6c1" opacity="0.13"/><rect x="427.9" y="379.4" width="515.4" height="7.5" rx="6" fill="#ffe6c1" opacity="0.14"/><rect x="1160.2" y="328.7" width="352.7" height="7.5" rx="6" fill="#ffe6c1" opacity="0.16"/><rect x="529.2" y="170.8" width="245.8" height="7.5" rx="6" fill="#ffe6c1" opacity="0.07"/><polygon points="0,555.1 0,549.1 266.7,473.7 533.3,533.5 800.0,463.2 1066.7,533.3 1333.3,482.4 1600.0,517.9 1600,549.1 1600,555.1" fill="#4a6a8c"/><rect x="0" y="549.1" width="1600" height="517.9" fill="#1e3145"/><rect x="1070.8" y="549.1" width="95.3" height="517.9" fill="#ffe6c1" opacity="0.2"/><rect x="187.7" y="553.1" width="178.6" height="3.7" rx="2" fill="#ffffff" opacity="0.12"/><rect x="96.7" y="557.4" width="241.3" height="3.7" rx="2" fill="#ffffff" opacity="0.06"/><rect x="823.9" y="566.1" width="358.8" height="3.7" rx="2" fill="#ffffff" opacity="0.17"/><rect x="934.2" y="578.0" width="460.0" height="3.7" rx="2" fill="#ffffff" opacity="0.2"/><rect x="536.6" y="592.5" width="476.4" height="3.7" rx="2" fill="#ffffff" opacity="0.09"/><rect x="572.8" y="609.5" width="330.1" height="3.7" rx="2" fill="#ffffff" opacity="0.1"/><rect x="1181.9" y="628.5" width="244.6" height="3.7" rx="2" fill="#ffffff" opacity="0.14"/><rect x="426.6" y="649.6" width="262.8" height="3.7" rx="2" fill="#ffffff" opacity="0.13"/><rect x="209.1" y="672.6" width="410.3" height="3.7" rx="2" fill="#ffffff" opacity="0.18"/><rect x="1037.4" y="697.4" width="251.0" height="3.7" rx="2" fill="#ffffff" opacity="0.12"/><rect x="1304.9" y="723.9" width="241.6" height="3.7" rx="2" fill="#ffffff" opacity="0.12"/><rect x="461.1" y="752.1" width="85.4" height="3.7" rx="2" fill="#ffffff" opacity="0.09"/><rect x="1393.5" y="781.8" width="128.2" height="3.7" rx="2" fill="#ffffff" opacity="0.09"/><rect x="372.6" y="813.1" width="446.6" height="3.7" rx="2" fill="#ffffff" opacity="0.14"/><rect x="918.5" y="845.8" width="347.6" height="3.7" rx="2" fill="#ffffff" opacity="0.12"/><rect x="811.6" y="879.9" width="205.2" height="3.7" rx="2" fill="#ffffff" opacity="0.16"/><rect x="396.1" y="915.5" width="180.2" height="3.7" rx="2" fill="#ffffff" opacity="0.06"/><rect x="564.8" y="952.4" width="442.7" height="3.7" rx="2" fill="#ffffff" opacity="0.07"/><rect x="1262.8" y="990.7" width="239.2" height="3.7" rx="2" fill="#ffffff" opacity="0.2"/><rect x="115.6" y="1030.2" width="472.2" height="3.7" rx="2" fill="#ffffff" opacity="0.1"/><path d="M0,992.3 Q100.0,982.1 200.0,994.6 Q300.0,983.6 400.0,993.8 Q500.0,977.7 600.0,988.0 Q700.0,977.7 800.0,1004.1 Q900.0,987.3 1000.0,997.6 Q1100.0,980.0 1200.0,990.3 Q1300.0,974.0 1400.0,984.2 Q1500.0,974.0 1600.0,984.9 L1600,1067 L0,1067 Z" fill="#101c2a"/><rect width="1600" height="1067" fill="url(#vig)"/></svg>