<svg xmlns="http://www.w3.org/2000/svg" viewBox="0 0 1120 1500" width="1120" height="1500" role="img" aria-label="lisbon 06"><defs><linearGradient id="sky" x1="0" y1="0" x2="0" y2="1"><stop offset="0%" stop-color="#152a52"/><stop offset="100%" stop-color="#eda971"/></linearGradient><radialGradient id="glow" cx="50%" cy="50%" r="50%"><stop offset="0%" stop-color="#ffe6c1" stop-opacity="0.8"/><stop offset="100%" stop-color="#ffe6c1" stop-opacity="0"/></radialGradient><radialGradient id="vig" cx="50%" cy="45%" r="78%"><stop offset="52%" stop-color="#000" stop-opacity="0"/><stop offset="100%" stop-color="#000" stop-opacity="0.5"/></radialGradient></defs><rect width="1120" height="1500" fill="url(#sky)"/><circle cx="547.6" cy="438.6" r="516.5" fill="url(#glow)"/><circle cx="547.6" cy="438.6" r="73.8" fill="#ffe6c1" opacity="0.92"/><rect x="495.5" y="711.8" width="434.9" height="10.5" rx="6" fill="#ffe6c1" opacity="0.09"/><rect x="472.2" y="576.9" width="171.0" height="10.5" rx="6" fill="#ffe6c1" opacity="0.12"/><rect x="320.7" y="671.4" width="257.6" height="10.5" rx="6" fill="#ffe6c1" opacity="0.07"/><rect x="702.2" y="517.1" width="300.1" height="10.5" rx="6" fill="#ffe6c1" opacity="0.13"/><path d="M0,931.2 Q70.0,831.1 140.0,891.1 Q210.0,831.1 280.0,905.6 Q350.0,842.1 420.0,902.1 Q490.0,842.1 560.0,971.8 Q630.0,865.7 700.0,925.7 Q770.0,865.1 840.0,925.1 Q910.0,829.9 980.0,889.9 Q1050.0,829.9 1120.0,935.9 L1120,1500 L0,1500 Z" fill="#4a6a8c"/><rect x="752.5" y="949.7" width="111.3" height="80.7" fill="#324c68"/><polygon points="743.6,949.7 808.2,924.3 872.7,949.7" fill="#1e3145"/><rect x="776.6" y="978.2" width="13.4" height="11.9" fill="#ffe0a8" opacity="0.5"/><rect x="-54.5" y="951.8" width="112.9" height="78.6" fill="#324c68"/><polygon points="-63.5,951.8 2.0,927.1 67.4,951.8" fill="#1e3145"/><rect x="-34.3" y="978.3" width="13.6" height="11.6" fill="#ffe0a8" opacity="0.5"/><rect x="110.3" y="983.2" width="62.9" height="47.2" fill="#324c68"/><polygon points="105.3,983.2 141.8,969.1 178.3,983.2" fill="#1e3145"/><rect x="147.7" y="997.5" width="7.6" height="6.6" fill="#ffe0a8" opacity="0.5"/><rect x="348.4" y="979.9" width="59.6" height="50.5" fill="#324c68"/><polygon points="343.6,979.9 378.2,964.8 412.7,979.9" fill="#1e3145"/><rect x="378.4" y="994.0" width="7.1" height="7.1" fill="#ffe0a8" opacity="0.5"/><rect x="366.1" y="991.5" width="7.1" height="7.1" fill="#ffe0a8" opacity="0.5"/><rect x="323.7" y="976.7" width="77.3" height="53.7" fill="#324c68"/><polygon points="317.5,976.7 362.4,960.5 407.2,976.7" fill="#1e3145"/><rect x="372.4" y="998.7" width="9.3" height="7.6" fill="#ffe0a8" opacity="0.5"/><rect x="368.9" y="995.1" width="9.3" height="7.6" fill="#ffe0a8" opacity="0.5"/><rect x="365.5" y="986.5" width="9.3" height="7.6" fill="#ffe0a8" opacity="0.5"/><rect x="439.1" y="946.9" width="119.2" height="83.5" fill="#324c68"/><polygon points="429.5,946.9 498.7,920.6 567.8,946.9" fill="#1e3145"/><rect x="495.5" y="979.4" width="14.3" height="12.4" fill="#ffe0a8" opacity="0.5"/><rect x="390.1" y="977.9" width="78.2" height="52.4" fill="#324c68"/><polygon points="383.8,977.9 429.2,962.2 474.6,977.9" fill="#1e3145"/><rect x="439.0" y="1001.6" width="9.4" height="7.4" fill="#ffe0a8" opacity="0.5"/><rect x="414.5" y="990.1" width="9.4" height="7.4" fill="#ffe0a8" opacity="0.5"/><rect x="96.9" y="949.9" width="93.6" height="80.5" fill="#324c68"/><polygon points="89.4,949.9 143.7,924.6 198.0,949.9" fill="#1e3145"/><rect x="159.0" y="996.6" width="11.2" height="11.9" fill="#ffe0a8" opacity="0.5"/><rect x="585.8" y="977.2" width="63.6" height="53.2" fill="#324c68"/><polygon points="580.7,977.2 617.6,961.1 654.5,977.2" fill="#1e3145"/><rect x="615.4" y="998.2" width="7.6" height="7.5" fill="#ffe0a8" opacity="0.5"/><rect x="614.3" y="1003.1" width="7.6" height="7.5" fill="#ffe0a8" opacity="0.5"/><rect x="636.0" y="963.0" width="80.7" height="67.4" fill="#324c68"/><polygon points="629.6,963.0 676.4,942.1 723.2,963.0" fill="#1e3145"/><rect x="686.8" y="979.5" width="9.7" height="9.8" fill="#ffe0a8" opacity="0.5"/><rect x="653.7" y="981.6" width="9.7" height="9.8" fill="#ffe0a8" opacity="0.5"/><rect x="0" y="1024.4" width="1120" height="1500" fill="#324c68"/><rect x="376.8" y="1218.2" width="113.6" height="73.0" fill="#1e3145"/><polygon points="367.7,1218.2 433.6,1195.4 499.5,1218.2" fill="#101c2a"/><rect x="456.7" y="1252.8" width="13.6" height="10.7" fill="#ffe0a8" opacity="0.5"/><rect x="311.6" y="1212.1" width="98.7" height="79.0" fill="#1e3145"/><polygon points="303.7,1212.1 360.9,1187.3 418.1,1212.1" fill="#101c2a"/><rect x="330.2" y="1232.9" width="11.8" height="11.7" fill="#ffe0a8" opacity="0.5"/><rect x="355.7" y="1244.9" width="11.8" height="11.7" fill="#ffe0a8" opacity="0.5"/><rect x="694.1" y="1236.2" width="64.5" height="55.0" fill="#1e3145"/><polygon points="689.0,1236.2 726.4,1219.5 763.8,1236.2" fill="#101c2a"/><rect x="708.8" y="1260.8" width="7.7" height="7.8" fill="#ffe0a8" opacity="0.5"/><rect x="731.0" y="1264.3" width="7.7" height="7.8" fill="#ffe0a8" opacity="0.5"/><rect x="1045.9" y="1222.3" width="89.5" height="68.9" fill="#1e3145"/><polygon points="1038.7,1222.3 1090.6,1200.9 1142.5,1222.3" fill="#101c2a"/><rect x="1068.8" y="1256.9" width="10.7" height="10.1" fill="#ffe0a8" opacity="0.5"/><rect x="857.5" y="1211.7" width="95.1" height="79.4" fill="#1e3145"/><polygon points="849.9,1211.7 905.0,1186.7 960.2,1211.7" fill="#101c2a"/><rect x="894.1" y="1247.5" width="11.4" height="11.8" fill="#ffe0a8" opacity="0.5"/><rect x="906.1" y="1259.3" width="11.4" height="11.8" fill="#ffe0a8" opacity="0.5"/><rect x="903.0" y="1234.7" width="11.4" height="11.8" fill="#ffe0a8" opacity="0.5"/><rect x="-55.0" y="1236.3" width="66.4" height="54.8" fill="#1e3145"/><polygon points="-60.4,1236.3 -21.8,1219.8 16.7,1236.3" fill="#101c2a"/><rect x="-33.8" y="1266.1" width="8.0" height="7.8" fill="#ffe0a8" opacity="0.5"/><rect x="526.4" y="1238.0" width="67.6" height="53.2" fill="#1e3145"/><polygon points="521.0,1238.0 560.2,1221.9 599.4,1238.0" fill="#101c2a"/><rect x="542.3" y="1260.5" width="8.1" height="7.5" fill="#ffe0a8" opacity="0.5"/><rect x="570.6" y="1255.3" width="8.1" height="7.5" fill="#ffe0a8" opacity="0.5"/><rect x="554.6" y="1249.3" width="8.1" height="7.5" fill="#ffe0a8" opacity="0.5"/><rect x="0" y="1285.1" width="1120" height="1500" fill="#101c2a"/><rect width="1120" height="1500" fill="url(#vig)"/></svg>