<svg xmlns="http://www.w3.org/2000/svg" viewBox="0 0 1600 1067" width="1600" height="1067" role="img" aria-label="alps 05"><defs><linearGradient id="sky" x1="0" y1="0" x2="0" y2="1"><stop offset="0%" stop-color="#123055"/><stop offset="100%" stop-color="#d6e7f4"/></linearGradient><radialGradient id="glow" cx="50%" cy="50%" r="50%"><stop offset="0%" stop-color="#ffffff" stop-opacity="0.8"/><stop offset="100%" stop-color="#ffffff" stop-opacity="0"/></radialGradient><radialGradient id="vig" cx="50%" cy="45%" r="78%"><stop offset="52%" stop-color="#000" stop-opacity="0"/><stop offset="100%" stop-color="#000" stop-opacity="0.5"/></radialGradient></defs><rect width="1600" height="1067" fill="url(#sky)"/><circle cx="726.4" cy="369.8" r="506.7" fill="url(#glow)"/><circle cx="726.4" cy="369.8" r="72.4" fill="#ffffff" opacity="0.92"/><rect x="1030.2" y="208.2" width="460.7" height="7.5" rx="6" fill="#ffffff" opacity="0.13"/><rect x="723.4" y="262.6" width="514.8" height="7.5" rx="6" fill="#ffffff" opacity="0.11"/><rect x="238.7" y="428.0" width="392.7" height="7.5" rx="6" fill="#ffffff" opacity="0.1"/><rect x="1154.5" y="178.6" width="257.4" height="7.5" rx="6" fill="#ffffff" opacity="0.11"/><rect x="499.8" y="144.6" width="438.4" height="7.5" rx="6" fill="#ffffff" opacity="0.06"/><rect x="14.4" y="372.4" width="476.4" height="7.5" rx="6" fill="#ffffff" opacity="0.14"/><path d="M0,568.9 Q100.0,526.2 200.0,579.0 Q300.0,475.0 400.0,517.7 Q500.0,475.0 600.0,585.9 Q700.0,543.2 800.0,604.9 Q900.0,485.6 1000.0,528.3 Q1100.0,485.6 1200.0,614.3 Q1300.0,504.2 1400.0,546.8 Q1500.0,504.2 1600.0,605.8 L1600,1067 L0,1067 Z" fill="#8fa9c2"/><rect x="1366.3" y="501.6" width="146.2" height="130.2" fill="#5b7995"/><polygon points="1354.6,501.6 1439.4,459.4 1524.1,501.6" fill="#334d6b"/><rect x="1454.6" y="528.4" width="17.5" height="19.9" fill="#ffe0a8" opacity="0.5"/><rect x="1449.8" y="535.3" width="17.5" height="19.9" fill="#ffe0a8" opacity="0.5"/><rect x="1354.8" y="507.6" width="159.3" height="124.2" fill="#5b7995"/><polygon points="1342.1,507.6 1434.4,467.4 1526.8,507.6" fill="#334d6b"/><rect x="1392.3" y="556.3" width="19.1" height="18.9" fill="#ffe0a8" opacity="0.5"/><rect x="577.4" y="533.2" width="155.1" height="98.6" fill="#5b7995"/><polygon points="565.0,533.2 654.9,501.7 744.9,533.2" fill="#334d6b"/><rect x="609.3" y="572.0" width="18.6" height="14.8" fill="#ffe0a8" opacity="0.5"/><rect x="648.7" y="562.7" width="18.6" height="14.8" fill="#ffe0a8" opacity="0.5"/><rect x="470.4" y="558.6" width="105.7" height="73.2" fill="#5b7995"/><polygon points="462.0,558.6 523.3,535.7 584.6,558.6" fill="#334d6b"/><rect x="486.6" y="599.3" width="12.7" height="10.8" fill="#ffe0a8" opacity="0.5"/><rect x="1169.4" y="487.4" width="173.7" height="144.3" fill="#5b7995"/><polygon points="1155.6,487.4 1256.3,440.4 1357.0,487.4" fill="#334d6b"/><rect x="1282.4" y="520.2" width="20.8" height="22.1" fill="#ffe0a8" opacity="0.5"/><rect x="74.8" y="541.6" width="105.8" height="90.1" fill="#5b7995"/><polygon points="66.4,541.6 127.7,513.0 189.1,541.6" fill="#334d6b"/><rect x="110.3" y="593.3" width="12.7" height="13.5" fill="#ffe0a8" opacity="0.5"/><rect x="124.4" y="576.6" width="12.7" height="13.5" fill="#ffe0a8" opacity="0.5"/><rect x="111.2" y="562.4" width="12.7" height="13.5" fill="#ffe0a8" opacity="0.5"/><rect x="189.6" y="531.2" width="111.7" height="100.6" fill="#5b7995"/><polygon points="180.7,531.2 245.5,499.0 310.3,531.2" fill="#334d6b"/><rect x="225.2" y="566.3" width="13.4" height="15.1" fill="#ffe0a8" opacity="0.5"/><rect x="253.9" y="574.2" width="13.4" height="15.1" fill="#ffe0a8" opacity="0.5"/><rect x="1235.6" y="561.3" width="115.5" height="70.5" fill="#5b7995"/><polygon points="1226.4,561.3 1293.4,539.4 1360.4,561.3" fill="#334d6b"/><rect x="1317.9" y="602.4" width="13.9" height="10.3" fill="#ffe0a8" opacity="0.5"/><rect x="615.8" y="573.7" width="81.3" height="58.0" fill="#5b7995"/><polygon points="609.3,573.7 656.4,556.0 703.6,573.7" fill="#334d6b"/><rect x="639.3" y="600.9" width="9.8" height="8.3" fill="#ffe0a8" opacity="0.5"/><rect x="660.8" y="596.4" width="9.8" height="8.3" fill="#ffe0a8" opacity="0.5"/><rect x="672.0" y="590.5" width="9.8" height="8.3" fill="#ffe0a8" opacity="0.5"/><rect x="0" y="625.7" width="1600" height="1067" fill="#5b7995"/><rect x="-107.0" y="690.6" width="160.6" height="100.5" fill="#334d6b"/><polygon points="-119.8,690.6 -26.7,658.4 66.4,690.6" fill="#182c47"/><rect x="-33.4" y="740.1" width="19.3" height="15.1" fill="#ffe0a8" opacity="0.5"/><rect x="-76.1" y="751.8" width="19.3" height="15.1" fill="#ffe0a8" opacity="0.5"/><rect x="608.1" y="683.2" width="126.0" height="107.9" fill="#334d6b"/><polygon points="598.0,683.2 671.1,648.5 744.2,683.2" fill="#182c47"/><rect x="653.7" y="704.8" width="15.1" height="16.3" fill="#ffe0a8" opacity="0.5"/><rect x="659.0" y="713.5" width="15.1" height="16.3" fill="#ffe0a8" opacity="0.5"/><rect x="678.9" y="663.7" width="169.5" height="127.4" fill="#334d6b"/><polygon points="665.3,663.7 763.6,622.4 862.0,663.7" fill="#182c47"/><rect x="797.6" y="706.4" width="20.3" height="19.4" fill="#ffe0a8" opacity="0.5"/><rect x="726.6" y="728.8" width="20.3" height="19.4" fill="#ffe0a8" opacity="0.5"/><rect x="715.0" y="707.1" width="107.5" height="83.9" fill="#334d6b"/><polygon points="706.4,707.1 768.8,680.6 831.1,707.1" fill="#182c47"/><rect x="787.9" y="738.6" width="12.9" height="12.5" fill="#ffe0a8" opacity="0.5"/><rect x="1174.7" y="660.2" width="144.8" height="130.8" fill="#334d6b"/><polygon points="1163.1,660.2 1247.1,617.7 1331.1,660.2" fill="#182c47"/><rect x="1205.7" y="688.8" width="17.4" height="20.0" fill="#ffe0a8" opacity="0.5"/><rect x="1247.4" y="707.2" width="17.4" height="20.0" fill="#ffe0a8" opacity="0.5"/><rect x="1264.6" y="731.8" width="17.4" height="20.0" fill="#ffe0a8" opacity="0.5"/><rect x="1560.4" y="702.7" width="148.9" height="88.3" fill="#334d6b"/><polygon points="1548.5,702.7 1634.9,674.8 1721.3,702.7" fill="#182c47"/><rect x="1671.7" y="730.7" width="17.9" height="13.2" fill="#ffe0a8" opacity="0.5"/><rect x="1594.7" y="747.2" width="17.9" height="13.2" fill="#ffe0a8" opacity="0.5"/><rect x="1649.1" y="721.9" width="17.9" height="13.2" fill="#ffe0a8" opacity="0.5"/><rect x="624.0" y="705.2" width="100.9" height="85.8" fill="#334d6b"/><polygon points="615.9,705.2 674.4,678.1 732.9,705.2" fill="#182c47"/><rect x="661.9" y="722.6" width="12.1" height="12.8" fill="#ffe0a8" opacity="0.5"/><rect x="1318.7" y="706.1" width="116.6" height="85.0" fill="#334d6b"/><polygon points="1309.4,706.1 1377.0,679.2 1444.6,706.1" fill="#182c47"/><rect x="1374.6" y="746.5" width="14.0" height="12.6" fill="#ffe0a8" opacity="0.5"/><rect x="1383.5" y="750.2" width="14.0" height="12.6" fill="#ffe0a8" opacity="0.5"/><rect x="0" y="785.0" width="1600" height="1067" fill="#182c47"/><rect width="1600" height="1067" fill="url(#vig)"/></svg>